<svg width="960" height="760" viewBox="0 0 960 760" fill="none" xmlns="http://www.w3.org/2000/svg" role="img" aria-labelledby="heroAuroraTitle heroAuroraDesc">
  <title id="heroAuroraTitle">Abstract aurora illustration</title>
  <desc id="heroAuroraDesc">Layered curved lines and gradient orbs used as decorative background.</desc>
  <defs>
    <linearGradient id="auroraStrokeA" x1="40" y1="40" x2="860" y2="620" gradientUnits="userSpaceOnUse">
      <stop stop-color="#61E8EE" stop-opacity="0.95"/>
      <stop offset="0.5" stop-color="#2BA8CD" stop-opacity="0.68"/>
      <stop offset="1" stop-color="#6E7FFF" stop-opacity="0.54"/>
    </linearGradient>
    <linearGradient id="auroraStrokeB" x1="172" y1="142" x2="814" y2="674" gradientUnits="userSpaceOnUse">
      <stop stop-color="#7EF0F2" stop-opacity="0.72"/>
      <stop offset="1" stop-color="#9FA6FF" stop-opacity="0.42"/>
    </linearGradient>
    <radialGradient id="orbOne" cx="0" cy="0" r="1" gradientUnits="userSpaceOnUse" gradientTransform="translate(640 220) rotate(111.74) scale(280 320)">
      <stop stop-color="#69ECF0" stop-opacity="0.8"/>
      <stop offset="1" stop-color="#69ECF0" stop-opacity="0"/>
    </radialGradient>
    <radialGradient id="orbTwo" cx="0" cy="0" r="1" gradientUnits="userSpaceOnUse" gradientTransform="translate(420 460) rotate(98.1) scale(240 250)">
      <stop stop-color="#7C90FF" stop-opacity="0.58"/>
      <stop offset="1" stop-color="#7C90FF" stop-opacity="0"/>
    </radialGradient>
  </defs>

  <circle cx="640" cy="220" r="280" fill="url(#orbOne)"/>
  <circle cx="420" cy="460" r="220" fill="url(#orbTwo)"/>

  <path d="M96 354C186 286 286 258 388 272C500 288 584 356 680 366C748 374 818 352 878 308" stroke="url(#auroraStrokeA)" stroke-width="18" stroke-linecap="round"/>
  <path d="M72 458C170 374 286 336 404 350C504 362 598 430 700 442C776 452 848 426 908 372" stroke="url(#auroraStrokeB)" stroke-width="13" stroke-linecap="round"/>
  <path d="M190 178C276 146 380 148 482 194C594 244 664 330 760 338" stroke="url(#auroraStrokeA)" stroke-opacity="0.66" stroke-width="10" stroke-linecap="round"/>

  <circle cx="314" cy="226" r="8" fill="#8CF4F8" fill-opacity="0.85"/>
  <circle cx="714" cy="284" r="7" fill="#9EA8FF" fill-opacity="0.8"/>
  <circle cx="548" cy="150" r="6" fill="#7EE8EC" fill-opacity="0.9"/>
</svg>
